<?xml version="1.0" encoding="utf-8"?>
<!-- Generator: Adobe Illustrator 24.0.0, SVG Export Plug-In . SVG Version: 6.00 Build 0)  -->
<svg version="1.1" id="Objects" xmlns="http://www.w3.org/2000/svg" xmlns:xlink="http://www.w3.org/1999/xlink" x="0px" y="0px"
	 viewBox="0 0 500 500" style="enable-background:new 0 0 500 500;" xml:space="preserve">
<style type="text/css">
	.st0{fill:#E3E3E3;}
	.st1{fill:#C2C2C2;}
	.st2{fill:#D9B34F;}
	.st3{font-family:'ArialMT';}
	.st4{font-size:237.7401px;}
	.st5{opacity:0.1;}
	.st6{fill:#E84C3D;}
	.st7{opacity:0.2;}
	.st8{fill:#AE392E;}
	.st9{fill:#D1D1D1;}
	.st10{fill:#FFFFFF;}
	.st11{fill:#888888;}
	.st12{fill:none;stroke:#FFFFFF;stroke-width:1.7191;stroke-miterlimit:10;}
	.st13{fill:#152632;}
	.st14{opacity:0.2;fill:#FFFFFF;}
	.st15{opacity:0.1;fill:#FFFFFF;}
	.st16{fill:#FFD800;}
	.st17{fill:#00AC65;}
	.st18{fill:#33AEFF;}
	.st19{fill:#E9662C;}
	.st20{fill:#9B59B6;}
</style>
<g>
	<path class="st0" d="M313.04,220.33l-84.32-28.03c-6.85-2.28-10.56-9.67-8.28-16.52l19.87-59.77c2.28-6.85,9.67-10.55,16.52-8.28
		l84.32,28.03c6.85,2.28,10.55,9.67,8.28,16.52l-19.87,59.77C327.28,218.9,319.89,222.61,313.04,220.33z"/>
	
		<rect x="249.96" y="142.08" transform="matrix(0.9489 0.3155 -0.3155 0.9489 70.1975 -79.4737)" class="st1" width="61.26" height="70.05"/>
	<text transform="matrix(1 0 0 1 75.7638 252.2603)" class="st2 st3 st4">4</text>
	<path class="st5" d="M157.69,244.99c0,2.45,0.1,4.87,0.3,7.27h34.79v-32.85h18.69v-34.24h-18.69v-11.18
		C171.45,190.32,157.69,216.04,157.69,244.99z"/>
	<g>
		<circle class="st6" cx="256.16" cy="244.99" r="89.39"/>
		<path class="st7" d="M331.65,197.09c3.91,10.05,6.07,20.99,6.07,32.42c0,49.37-40.02,89.39-89.39,89.39
			c-31.75,0-59.63-16.55-75.49-41.5c12.98,33.34,45.39,56.97,83.33,56.97c49.37,0,89.39-40.02,89.39-89.39
			C345.55,227.36,340.45,210.94,331.65,197.09z"/>
		
			<ellipse transform="matrix(0.2319 -0.9727 0.9727 0.2319 -33.3233 373.8504)" class="st8" cx="220.06" cy="208.03" rx="21.49" ry="21.49"/>
		
			<ellipse transform="matrix(0.923 -0.3849 0.3849 0.923 -81.3457 94.7422)" class="st8" cx="195.99" cy="250.57" rx="9.46" ry="9.45"/>
		
			<ellipse transform="matrix(0.2285 -0.9735 0.9735 0.2285 35.4642 435.4469)" class="st8" cx="292.48" cy="195.35" rx="12.68" ry="12.68"/>
		<circle class="st8" cx="265.17" cy="258.26" r="6"/>
		<circle class="st8" cx="327.5" cy="223.51" r="6"/>
		<g class="st7">
			<path d="M256.16,155.59c-11.72,0-22.92,2.26-33.17,6.36c-0.32,0.56-0.64,1.13-0.95,1.72l0,0c0,0,0,0,0,0
				c-0.29,0.54-0.57,1.1-0.85,1.66c0,0,0,0,0,0h0c-2.29,4.68-4.15,10.1-5.3,16.37c-0.55,1.07-0.97,2.22-1.22,3.45
				c-1.44,7.11-1.62,14.83-0.55,22.93c0.88,6.7,6.61,11.58,13.19,11.58c0.58,0,1.17-0.04,1.76-0.12
				c7.29-0.96,12.43-7.66,11.47-14.95c-0.28-2.09-0.42-4.11-0.45-6.05l0.79,0.79c2.01,2.02,5.27,2.03,7.29,0.02
				c2.02-2.01,2.03-5.27,0.02-7.29l-7.58-7.62c-0.32-1.24-0.82-2.41-1.47-3.5c0.55-1.71,1.2-3.3,1.91-4.77
				c0.31-0.65,0.64-1.28,0.98-1.89c1.82-3.24,3.99-5.89,6.27-8.05c0.44-0.41,0.88-0.8,1.33-1.18c2.3-1.96,4.68-3.46,6.9-4.6
				c0.57-0.29,1.12-0.56,1.66-0.81c0.32-0.15,0.63-0.29,0.94-0.42c1.77-0.75,3.26-1.91,4.4-3.34
				C261.1,155.7,258.64,155.59,256.16,155.59z"/>
			<path d="M323.37,242.08c5.06-6.42,8.83-13.15,11.23-20c0.42-1.19,0.64-2.4,0.71-3.59c1.2-3.26,2.08-6.4,2.72-9.43
				c-6.61-15.04-17.24-27.91-30.54-37.25c0.23,1.87,0.93,3.69,2.11,5.28c0.2,0.27,0.4,0.55,0.6,0.84c0.34,0.49,0.68,1,1.02,1.54
				c1.33,2.11,2.6,4.62,3.58,7.48c0.19,0.55,0.37,1.12,0.54,1.7c0.86,3.02,1.37,6.41,1.28,10.12c-0.02,0.7-0.06,1.41-0.12,2.13h0
				c-0.14,1.63-0.4,3.33-0.79,5.08c-1.11,0.6-2.14,1.36-3.05,2.26l-10.41,2.69c-2.76,0.71-4.42,3.52-3.7,6.28
				c0.71,2.76,3.52,4.42,6.28,3.7l1.08-0.28c-1.02,1.66-2.17,3.32-3.47,4.98c-4.55,5.78-3.55,14.16,2.23,18.71
				c0.47,0.37,0.95,0.7,1.45,1C311.77,248.66,319.19,247.39,323.37,242.08z"/>
		</g>
		<g>
			<g>
				<path class="st9" d="M320.18,224.4c5.25,1.7,11.08-0.72,13.52-5.84c11.08-23.3,6.42-41.6,0.56-52.86c-1.67-3.2-3.51-6-5.35-8.41
					c-4.65-6.11-13.89-5.96-18.34,0.29l0,0c-2.8,3.93-2.71,9.19,0.15,13.08c5.21,7.08,11.25,20.34,2.89,38.08
					c-2.49,5.29-0.68,11.76,4.38,14.68C318.71,223.84,319.44,224.16,320.18,224.4z"/>
			</g>
			<g>
				<path class="st10" d="M307.24,238.9c5.66,3.36,13.07,2.09,17.25-3.23c5.06-6.42,8.83-13.15,11.23-20
					c2.43-6.95-1.23-14.55-8.18-16.97c-6.95-2.43-14.55,1.23-16.97,8.18c-1.42,4.07-3.78,8.21-7.02,12.32
					c-4.55,5.78-3.55,14.16,2.23,18.71C306.25,238.27,306.74,238.6,307.24,238.9z"/>
			</g>
			<path class="st10" d="M305.94,214.49l11.24-2.9c2.76-0.71,4.42-3.52,3.7-6.28l0,0c-0.71-2.76-3.52-4.42-6.28-3.7l-11.24,2.9
				c-2.76,0.71-4.42,3.52-3.7,6.28l0,0C300.37,213.54,303.19,215.2,305.94,214.49z"/>
			<path class="st11" d="M332.63,162.82c0.37,0.62,0.73,1.26,1.09,1.92c-5.59-1.45-14.69-1.73-21.39,8.31
				c-0.34-0.54-0.68-1.06-1.02-1.54C317.89,162.17,326.62,161.67,332.63,162.82z"/>
			<path class="st11" d="M316.46,182.23c-0.17-0.58-0.35-1.14-0.54-1.7c9.36-6.02,17.49-5.48,22.58-4.02
				c0.17,0.63,0.34,1.28,0.49,1.93C334.33,176.87,326.12,175.84,316.46,182.23z"/>
			<path class="st11" d="M340.35,193.42c-0.03,0.62-0.07,1.24-0.12,1.87c-5.15-3.41-13.79-6.92-22.61-0.81
				c0.06-0.72,0.1-1.43,0.12-2.13C326.44,187.05,334.93,190.1,340.35,193.42z"/>
		</g>
		<circle class="st8" cx="298.06" cy="294.62" r="7.52"/>
		
			<ellipse transform="matrix(0.2387 -0.9711 0.9711 0.2387 -107.7417 465.5753)" class="st8" cx="243.05" cy="301.5" rx="14.4" ry="14.4"/>
	</g>
	<path class="st7" d="M281.74,330.66c36.9-11,63.81-45.19,63.81-85.67c0-5-0.42-9.89-1.2-14.67l-62.61,91.54V330.66z"/>
	<g>
		<g>
			<path class="st9" d="M224.69,194.2c-5.38-1.22-9.16-6.27-8.64-11.92c2.36-25.69,15.71-39.05,26.49-45.74
				c3.07-1.9,6.09-3.37,8.89-4.5c7.12-2.88,14.98,1.96,15.63,9.61l0,0c0.4,4.81-2.36,9.29-6.81,11.17
				c-8.1,3.43-20.05,11.75-21.93,31.27c-0.56,5.82-5.42,10.46-11.26,10.39C226.25,194.47,225.45,194.38,224.69,194.2z"/>
		</g>
		<g>
			<path class="st10" d="M228.42,213.27c-6.58,0-12.31-4.88-13.19-11.58c-1.07-8.1-0.88-15.82,0.55-22.93
				c1.46-7.21,8.49-11.88,15.7-10.42c7.21,1.46,11.88,8.48,10.42,15.7c-0.85,4.22-0.94,8.99-0.25,14.17
				c0.96,7.29-4.17,13.99-11.47,14.95C229.59,213.23,229,213.27,228.42,213.27z"/>
		</g>
		<path class="st10" d="M241.99,192.95l-8.18-8.23c-2.01-2.02-2-5.29,0.02-7.29l0,0c2.02-2.01,5.29-2,7.29,0.02l8.18,8.23
			c2.01,2.02,2,5.29-0.02,7.29l0,0C247.27,194.98,244,194.97,241.99,192.95z"/>
		<path class="st11" d="M245.42,134.89c-0.64,0.35-1.28,0.71-1.92,1.09c5.55,1.61,13.52,6.01,14.15,18.07
			c0.57-0.29,1.12-0.56,1.67-0.81C258.43,141.85,251.18,136.97,245.42,134.89z"/>
		<path class="st11" d="M249.42,159.84c0.44-0.41,0.88-0.81,1.33-1.19c-4.98-9.95-12.24-13.64-17.37-14.99
			c-0.47,0.46-0.94,0.93-1.41,1.41C236.78,146.11,244.37,149.42,249.42,159.84z"/>
		<path class="st11" d="M223.16,157.27c-0.29,0.55-0.57,1.1-0.85,1.67c6.16-0.3,15.39,1.09,19.86,10.84
			c0.32-0.65,0.64-1.28,0.98-1.89C238.38,158.89,229.52,157.18,223.16,157.27z"/>
	</g>
	<path class="st5" d="M318.76,152.88l-54.94-18.27c-1.01-1.02-2.21-1.84-3.51-2.42c0.48,2.6,1.23,5.13,2.25,7.55v0
		c1.72,4.08,4.16,7.84,7.23,11.07c0.04,0.04,0.08,0.08,0.12,0.13c0.38,0.4,0.77,0.79,1.18,1.17c0.1,0.09,0.2,0.18,0.29,0.27
		c0.35,0.33,0.71,0.65,1.08,0.96c0.13,0.11,0.27,0.23,0.4,0.34c0.34,0.28,0.68,0.56,1.03,0.83c0.16,0.13,0.32,0.25,0.49,0.37
		c0.33,0.25,0.67,0.49,1.01,0.73c0.18,0.13,0.37,0.26,0.56,0.38c0.33,0.22,0.67,0.44,1.01,0.65c0.2,0.12,0.4,0.25,0.6,0.37
		c0.34,0.2,0.69,0.4,1.04,0.59c0.21,0.12,0.42,0.23,0.64,0.35c0.36,0.19,0.72,0.36,1.09,0.54c0.21,0.1,0.42,0.21,0.64,0.31
		c0.4,0.18,0.81,0.35,1.22,0.52c0.19,0.08,0.37,0.16,0.56,0.24c0.6,0.24,1.21,0.46,1.84,0.67l1.9,0.63
		c0.62,0.21,1.25,0.39,1.87,0.56c0.2,0.05,0.39,0.1,0.59,0.15c0.43,0.11,0.86,0.22,1.29,0.31c0.23,0.05,0.46,0.09,0.7,0.14
		c0.4,0.08,0.8,0.16,1.2,0.22c0.24,0.04,0.48,0.07,0.72,0.1c0.39,0.06,0.79,0.11,1.18,0.15c0.24,0.03,0.47,0.04,0.71,0.07
		c0.4,0.04,0.8,0.07,1.2,0.09c0.22,0.01,0.45,0.02,0.67,0.03c0.42,0.01,0.83,0.02,1.25,0.02c0.2,0,0.41,0,0.61,0
		c0.44-0.01,0.88-0.02,1.32-0.05c0.18-0.01,0.35-0.02,0.53-0.03c0.48-0.03,0.96-0.08,1.44-0.13c0.13-0.01,0.26-0.03,0.39-0.04
		c0.55-0.07,1.1-0.14,1.65-0.24c0.06-0.01,0.11-0.02,0.17-0.03c6.9-1.18,13.35-4.33,18.52-9.03
		C321.26,152.86,320.01,152.76,318.76,152.88z"/>
	<g>
		<line class="st12" x1="335.06" y1="137.46" x2="349.02" y2="95.46"/>
		<path class="st1" d="M352.13,96.79c-0.57,1.73-2.44,2.66-4.17,2.09c-1.73-0.57-2.66-2.44-2.09-4.17c0.57-1.73,2.44-2.66,4.17-2.09
			C351.77,93.2,352.7,95.06,352.13,96.79z"/>
		<line class="st12" x1="262.4" y1="113.31" x2="276.36" y2="71.3"/>
		<path class="st1" d="M257.06,124.67l6.28,2.09l8.81-26.51l-6.28-2.09c-3.34-1.11-6.96,0.7-8.07,4.04l-4.79,14.4
			C251.9,119.94,253.71,123.56,257.06,124.67z"/>
		<g class="st5">
			<path d="M265.2,121.16l-6.93-2.31c-2.99-0.99-4.6-4.22-3.61-7.2l-1.64,4.94c-1.11,3.34,0.7,6.96,4.04,8.07l6.28,2.09
				L265.2,121.16z"/>
		</g>
		<path class="st1" d="M331.31,149.35l-6.28-2.09l8.81-26.51l6.28,2.09c3.34,1.11,5.15,4.72,4.04,8.07l-4.79,14.4
			C338.27,148.65,334.65,150.46,331.31,149.35z"/>
		<g class="st5">
			<path d="M341.31,139.49c-0.97,2.92-4.13,4.5-7.05,3.53l-7.05-2.34l-2.19,6.58l6.28,2.09c3.34,1.11,6.96-0.7,8.07-4.04
				L341.31,139.49z"/>
		</g>
		<path class="st10" d="M288.28,157.16l-1.9-0.63c-18.99-6.31-29.36-27.02-23.05-46.01v0c6.31-18.99,27.02-29.36,46.01-23.05
			l1.9,0.63c18.99,6.31,29.36,27.02,23.05,46.01v0C327.97,153.1,307.27,163.48,288.28,157.16z"/>
		<path class="st13" d="M264.35,136.05c3.93,9.35,11.7,17.04,22.03,20.48l1.9,0.63c10.33,3.43,21.15,1.92,29.9-3.21l2.56-4.68
			c4.44-8.14,9.46-22.91,10.98-32.06l-0.01,0.02c0.76-4.57-1.91-9.03-6.3-10.49l-38.58-12.83c-4.39-1.46-9.2,0.52-11.33,4.63
			l0.01-0.02c-4.26,8.24-9.08,23.07-10.4,32.25L264.35,136.05z"/>
		<path class="st7" d="M331.69,117.28c0.25-1.5,0.12-2.99-0.31-4.36c-0.22,0.86-0.46,1.71-0.74,2.57
			c-6.39,19.21-29.09,35.48-48.3,29.09c-7.19-2.39-13.14-6.79-17.44-12.37l-0.55,3.85c3.93,9.35,11.7,17.04,22.03,20.48l1.9,0.63
			c10.33,3.43,21.15,1.92,29.9-3.21l2.56-4.68C325.18,141.13,330.17,126.43,331.69,117.28z"/>
		
			<ellipse transform="matrix(0.8926 -0.4508 0.4508 0.8926 -22.03 142.1994)" class="st14" cx="287.47" cy="117.34" rx="9.67" ry="9.67"/>
		<path class="st14" d="M278.7,132.14c-0.69,2.08-2.94,3.21-5.03,2.52c-2.08-0.69-3.21-2.94-2.52-5.03
			c0.69-2.08,2.94-3.21,5.03-2.52C278.27,127.81,279.4,130.06,278.7,132.14z"/>
		<path class="st1" d="M279.47,72.64c-0.57,1.73-2.44,2.66-4.17,2.09c-1.73-0.57-2.66-2.44-2.09-4.17c0.57-1.73,2.44-2.66,4.17-2.09
			C279.1,69.04,280.04,70.91,279.47,72.64z"/>
	</g>
	<text transform="matrix(1 0 0 1 284.9357 394.3297)" class="st2 st3 st4">4</text>
</g>
<g>
	<circle class="st15" cx="68.87" cy="288.24" r="27.5"/>
	<circle class="st16" cx="68.87" cy="288.24" r="19.25"/>
	<path class="st5" d="M79.64,272.28c2.08,3.07,3.29,6.78,3.29,10.77c0,10.63-8.62,19.25-19.25,19.25c-3.99,0-7.7-1.21-10.77-3.29
		c3.46,5.12,9.32,8.48,15.96,8.48c10.63,0,19.25-8.62,19.25-19.25C88.12,281.6,84.76,275.74,79.64,272.28z"/>
</g>
<g>
	<circle class="st15" cx="413.91" cy="154.75" r="17.41"/>
	<circle class="st17" cx="413.91" cy="154.75" r="12.19"/>
	<path class="st5" d="M420.73,144.65c1.32,1.95,2.08,4.29,2.08,6.82c0,6.73-5.46,12.19-12.19,12.19c-2.53,0-4.87-0.77-6.82-2.08
		c2.19,3.24,5.9,5.37,10.1,5.37c6.73,0,12.19-5.46,12.19-12.19C426.1,150.54,423.97,146.84,420.73,144.65z"/>
</g>
<g>
	<circle class="st15" cx="313.87" cy="433.2" r="12.32"/>
	
		<ellipse transform="matrix(0.241 -0.9705 0.9705 0.241 -182.2034 633.4126)" class="st18" cx="313.87" cy="433.2" rx="8.62" ry="8.62"/>
	<path class="st5" d="M318.69,426.05c0.93,1.38,1.47,3.04,1.47,4.82c0,4.76-3.86,8.62-8.62,8.62c-1.79,0-3.45-0.54-4.82-1.47
		c1.55,2.29,4.17,3.8,7.15,3.8c4.76,0,8.62-3.86,8.62-8.62C322.49,430.22,320.98,427.6,318.69,426.05z"/>
</g>
<circle class="st16" cx="366" cy="50" r="6"/>
<circle class="st19" cx="444.43" cy="230.45" r="4.93"/>
<circle class="st17" cx="130.5" cy="302.9" r="2.75"/>
<path class="st20" d="M68.87,108.94c0,2.73-2.21,4.94-4.94,4.94c-2.73,0-4.94-2.21-4.94-4.94c0-2.73,2.21-4.94,4.94-4.94
	C66.66,104,68.87,106.21,68.87,108.94z"/>
<circle class="st20" cx="418.32" cy="402.62" r="5.79"/>
<circle class="st10" cx="240.88" cy="51.67" r="3"/>
<circle class="st10" cx="133.25" cy="394.33" r="4.25"/>
<path class="st10" d="M444.43,83.6h-1.62v-1.62c0-1.12-0.91-2.02-2.02-2.02s-2.02,0.91-2.02,2.02v1.62h-1.62
	c-1.12,0-2.02,0.91-2.02,2.02c0,1.12,0.91,2.02,2.02,2.02h1.62v1.62c0,1.12,0.91,2.02,2.02,2.02s2.02-0.91,2.02-2.02v-1.62h1.62
	c1.12,0,2.02-0.91,2.02-2.02C446.46,84.5,445.55,83.6,444.43,83.6z"/>
<path class="st10" d="M39.35,201.79h-1.62v-1.62c0-1.12-0.91-2.02-2.02-2.02c-1.12,0-2.02,0.91-2.02,2.02v1.62h-1.62
	c-1.12,0-2.02,0.91-2.02,2.02c0,1.12,0.91,2.02,2.02,2.02h1.62v1.62c0,1.12,0.91,2.02,2.02,2.02c1.12,0,2.02-0.91,2.02-2.02v-1.62
	h1.62c1.12,0,2.02-0.91,2.02-2.02C41.37,202.69,40.47,201.79,39.35,201.79z"/>
<path class="st10" d="M249.6,433.79h-1.62v-1.62c0-1.12-0.91-2.02-2.02-2.02s-2.02,0.91-2.02,2.02v1.62h-1.62
	c-1.12,0-2.02,0.91-2.02,2.02s0.91,2.02,2.02,2.02h1.62v1.62c0,1.12,0.91,2.02,2.02,2.02s2.02-0.91,2.02-2.02v-1.62h1.62
	c1.12,0,2.02-0.91,2.02-2.02S250.71,433.79,249.6,433.79z"/>
<path class="st10" d="M443.14,298.12h-1.62v-1.62c0-1.12-0.91-2.02-2.02-2.02c-1.12,0-2.02,0.91-2.02,2.02v1.62h-1.62
	c-1.12,0-2.02,0.91-2.02,2.02c0,1.12,0.91,2.02,2.02,2.02h1.62v1.62c0,1.12,0.91,2.02,2.02,2.02c1.12,0,2.02-0.91,2.02-2.02v-1.62
	h1.62c1.12,0,2.02-0.91,2.02-2.02C445.17,299.03,444.26,298.12,443.14,298.12z"/>
<path class="st10" d="M117.62,36.31H116v-1.62c0-1.12-0.91-2.02-2.02-2.02c-1.12,0-2.02,0.91-2.02,2.02v1.62h-1.62
	c-1.12,0-2.02,0.91-2.02,2.02c0,1.12,0.91,2.02,2.02,2.02h1.62v1.62c0,1.12,0.91,2.02,2.02,2.02c1.12,0,2.02-0.91,2.02-2.02v-1.62
	h1.62c1.12,0,2.02-0.91,2.02-2.02C119.64,37.22,118.74,36.31,117.62,36.31z"/>
</svg>
