<?xml version="1.0" encoding="utf-8"?>
<!-- Generator: Adobe Illustrator 24.0.0, SVG Export Plug-In . SVG Version: 6.00 Build 0)  -->
<svg version="1.1" id="OBJECT" xmlns="http://www.w3.org/2000/svg" xmlns:xlink="http://www.w3.org/1999/xlink" x="0px" y="0px"
	 viewBox="0 0 500 500" style="enable-background:new 0 0 500 500;" xml:space="preserve">
<style type="text/css">
	.st0{opacity:0.05;}
	.st1{fill:url(#SVGID_1_);}
	.st2{opacity:0.1;}
	.st3{fill:url(#SVGID_2_);}
	.st4{fill:url(#SVGID_3_);}
	.st5{fill:url(#SVGID_4_);}
	.st6{fill:#FFD371;}
	.st7{fill:#FFC552;}
	.st8{opacity:0.5;fill:#FFEDA1;}
	.st9{fill:#FFEDA1;}
	.st10{fill:#FFB32C;}
	.st11{fill:#FFA20D;}
	.st12{fill:#E29417;}
	.st13{fill:none;stroke:#E29417;stroke-width:2;stroke-linecap:round;stroke-miterlimit:10;}
	.st14{opacity:0.5;}
	.st15{fill:url(#SVGID_5_);}
	.st16{opacity:0.2;}
	.st17{fill:url(#SVGID_6_);}
	.st18{fill:none;stroke:#E00E6E;stroke-width:2;stroke-miterlimit:10;}
	.st19{fill:#FF217B;}
	.st20{fill:#E00E6E;}
	.st21{fill:none;stroke:#139FE5;stroke-width:2;stroke-miterlimit:10;}
	.st22{fill:none;stroke:#139FE5;stroke-width:2;stroke-linecap:round;stroke-linejoin:round;stroke-miterlimit:10;}
	.st23{fill:#33B0FF;}
	.st24{fill:#139FE5;}
	.st25{fill:#FFFFFF;}
	.st26{fill:url(#SVGID_7_);}
	.st27{fill:url(#SVGID_8_);}
</style>
<g>
	<g class="st0">
		<radialGradient id="SVGID_1_" cx="250" cy="224.3137" r="261.349" gradientUnits="userSpaceOnUse">
			<stop  offset="0.5179" style="stop-color:#BCBEC0;stop-opacity:0"/>
			<stop  offset="0.5742" style="stop-color:#BEBFBC;stop-opacity:0.1741"/>
			<stop  offset="0.6283" style="stop-color:#C3C3B1;stop-opacity:0.3416"/>
			<stop  offset="0.6816" style="stop-color:#CBCA9D;stop-opacity:0.5066"/>
			<stop  offset="0.7344" style="stop-color:#D7D382;stop-opacity:0.6699"/>
			<stop  offset="0.7868" style="stop-color:#E6DE5F;stop-opacity:0.8321"/>
			<stop  offset="0.8383" style="stop-color:#F8EC34;stop-opacity:0.9915"/>
			<stop  offset="0.841" style="stop-color:#F9ED32"/>
		</radialGradient>
		<circle class="st1" cx="250" cy="224.31" r="205.95"/>
	</g>
	<g class="st2">
		<radialGradient id="SVGID_2_" cx="250" cy="224.3137" r="195.109" gradientUnits="userSpaceOnUse">
			<stop  offset="0.5179" style="stop-color:#BCBEC0;stop-opacity:0"/>
			<stop  offset="0.5742" style="stop-color:#BEBFBC;stop-opacity:0.1741"/>
			<stop  offset="0.6283" style="stop-color:#C3C3B1;stop-opacity:0.3416"/>
			<stop  offset="0.6816" style="stop-color:#CBCA9D;stop-opacity:0.5066"/>
			<stop  offset="0.7344" style="stop-color:#D7D382;stop-opacity:0.6699"/>
			<stop  offset="0.7868" style="stop-color:#E6DE5F;stop-opacity:0.8321"/>
			<stop  offset="0.8383" style="stop-color:#F8EC34;stop-opacity:0.9915"/>
			<stop  offset="0.841" style="stop-color:#F9ED32"/>
		</radialGradient>
		<circle class="st3" cx="250" cy="224.31" r="153.75"/>
	</g>
	<g>
		<radialGradient id="SVGID_3_" cx="250" cy="224.3137" r="136.3738" gradientUnits="userSpaceOnUse">
			<stop  offset="0.5887" style="stop-color:#F9ED32;stop-opacity:0"/>
			<stop  offset="0.8964" style="stop-color:#F9ED32"/>
		</radialGradient>
		<circle class="st4" cx="250" cy="224.31" r="87.48"/>
	</g>
	<linearGradient id="SVGID_4_" gradientUnits="userSpaceOnUse" x1="250" y1="231.8568" x2="250" y2="410.9766">
		<stop  offset="0" style="stop-color:#BCBEC0;stop-opacity:0"/>
		<stop  offset="0.1317" style="stop-color:#BFC0B9;stop-opacity:0.1317"/>
		<stop  offset="0.3189" style="stop-color:#C7C6A7;stop-opacity:0.3189"/>
		<stop  offset="0.5393" style="stop-color:#D4D188;stop-opacity:0.5393"/>
		<stop  offset="0.7829" style="stop-color:#E6DE5E;stop-opacity:0.7829"/>
		<stop  offset="1" style="stop-color:#F9ED32"/>
	</linearGradient>
	<path class="st5" d="M183.34,224.31v55.99v51.34c0,5.15,4.18,9.33,9.33,9.33c5.15,0,9.33-4.18,9.33-9.33v-12.48
		c0-5.64,4.58-10.22,10.23-10.22c2.82,0,5.37,1.15,7.23,2.99c1.84,1.86,2.99,4.41,2.99,7.23v5.31v40.81v8.43
		c0,5.73,4.65,10.38,10.38,10.38c5.74,0,10.38-4.65,10.38-10.38v-8.43v-13.93c0-5.73,4.65-10.38,10.38-10.38
		c2.87,0,5.47,1.16,7.34,3.04c1.32,1.32,2.29,3,2.74,4.88v16.39v2.19c0,0.77,0.1,1.52,0.3,2.23c0.98,3.61,4.27,6.27,8.2,6.27
		c4.69,0,8.5-3.81,8.5-8.5v-2.19v-39.61c0-5.06,4.1-9.16,9.16-9.16c2.53,0,4.83,1.02,6.49,2.68c1.66,1.66,2.68,3.95,2.68,6.48v39.61
		v9.98c0,4.88,3.95,8.83,8.83,8.83c4.87,0,8.83-3.95,8.83-8.83v-9.98V292.8v-68.49H183.34z"/>
	<g>
		<circle class="st6" cx="250" cy="224.31" r="66.66"/>
		<circle class="st6" cx="250" cy="224.31" r="66.66"/>
		<path class="st7" d="M316.66,224.31c0,36.81-29.85,66.66-66.66,66.66c-22.51,0-42.42-11.16-54.48-28.25
			c10.86,7.68,24.11,12.18,38.41,12.18c36.81,0,66.66-29.85,66.66-66.66c0-14.3-4.5-27.55-12.17-38.4
			C305.51,181.91,316.66,201.81,316.66,224.31z"/>
		<path class="st6" d="M237.74,154.86c0.05-0.17,0.12-0.35,0.2-0.53c0.53-1.2,1.99-1.67,3.3-1.77c5.07-0.37,10.05-0.78,15.13-0.73
			c1.29,0.01,2.7,0.31,3.52,1.31c0.67,0.82,0.82,1.97,0.63,3.01c-0.25,1.41-0.97,3.02-1.84,4.16c-0.33,0.43-0.72,0.85-1.22,1.07
			c-0.42,0.19-0.9,0.21-1.36,0.24c-3.12,0.16-6.25,0.19-9.37,0.08C243.69,161.61,236.39,159.31,237.74,154.86z"/>
		<path class="st6" d="M182.79,207.51c-0.43,0-0.88,0-1.26,0.2c-0.52,0.27-0.81,0.84-1.04,1.38c-2.06,4.64-3.29,9.91-1.89,14.78
			c0.36,1.26,0.93,2.51,1.91,3.37c0.99,0.86,2.47,1.25,3.64,0.68c1.69-0.83,2.01-3.04,2.19-4.91c0.35-3.76,0.97-7.5,1.86-11.18
			C189.33,207.16,186.39,207.52,182.79,207.51z"/>
		<path class="st6" d="M316.57,202.83c0.31-0.16,0.65-0.33,1.01-0.29c0.44,0.06,0.76,0.42,1.01,0.78c1.71,2.44,1.99,5.58,2.21,8.55
			c0.15,2.06,0.31,4.12,0.46,6.18c0.09,1.24,0.18,2.51-0.24,3.68c-0.42,1.17-1.49,2.19-2.72,2.16c-1.69-0.05-2.69-1.88-3.26-3.48
			c-1.29-3.61-2.06-7.29-2.61-11.07C311.91,205.75,313.36,204.5,316.57,202.83z"/>
		<path class="st8" d="M257.6,166.13c-34-5.03-57.22,30.27-58.04,60.19c-0.27,9.89,1.62,20.65,8.89,27.36
			c6.86,6.33,17.22,7.63,26.32,5.59c18.43-4.13,35.13-16.72,43.08-34.17c6.87-15.09,8.11-37.43-3.79-50.5
			C269.75,169.87,263.89,167.06,257.6,166.13z"/>
		<path class="st9" d="M251.05,184.89c-20.37-3.01-34.27,18.13-34.77,36.06c-0.16,5.92,0.97,12.37,5.32,16.39
			c4.11,3.79,10.31,4.57,15.77,3.35c11.04-2.47,21.04-10.02,25.8-20.47c4.11-9.04,4.86-22.42-2.27-30.25
			C258.33,187.13,254.82,185.44,251.05,184.89z"/>
		<path class="st10" d="M290.98,234.26c-1.76,0.2-3.56,0.72-4.84,1.94c-0.92,0.87-1.5,2.04-1.97,3.22c-0.72,1.8-1.23,3.73-1.13,5.67
			c0.2,4.11,3.36,7.9,7.37,8.82c4.01,0.92,8.51-1.11,10.48-4.72C304.99,241.65,299.53,233.31,290.98,234.26z"/>
		<path class="st11" d="M302.16,245.46c-0.77-4.94-5.22-8.78-11.18-8.12c-1.76,0.19-3.56,0.72-4.84,1.94
			c-0.92,0.87-1.5,2.04-1.97,3.21c-0.46,1.17-0.84,2.39-1.02,3.63c-0.06-0.34-0.1-0.69-0.12-1.04c-0.09-1.94,0.42-3.87,1.14-5.67
			c0.47-1.18,1.05-2.34,1.97-3.22c1.28-1.22,3.08-1.74,4.84-1.94C298.13,233.46,303.12,239.16,302.16,245.46z"/>
		<path class="st10" d="M221.11,245.66c-1.5,0.17-3.04,0.61-4.14,1.66c-0.79,0.75-1.28,1.74-1.69,2.75
			c-0.62,1.54-1.05,3.19-0.97,4.85c0.17,3.51,2.88,6.75,6.3,7.54c3.43,0.79,7.28-0.95,8.96-4.04
			C233.08,251.98,228.42,244.85,221.11,245.66z"/>
		<path class="st11" d="M230.62,255.53c-0.78-4.09-4.53-7.22-9.51-6.67c-1.51,0.17-3.05,0.61-4.14,1.66
			c-0.79,0.75-1.29,1.74-1.69,2.75c-0.35,0.89-0.65,1.82-0.82,2.77c-0.08-0.37-0.13-0.74-0.15-1.12c-0.08-1.66,0.36-3.31,0.97-4.85
			c0.4-1.01,0.9-2.01,1.69-2.75c1.09-1.05,2.63-1.5,4.14-1.66C227.33,244.97,231.64,250.04,230.62,255.53z"/>
		<path class="st10" d="M194.63,214.39c-0.94,0.1-1.9,0.38-2.58,1.03c-0.49,0.47-0.8,1.09-1.05,1.72c-0.38,0.96-0.65,1.99-0.6,3.02
			c0.1,2.19,1.79,4.21,3.93,4.7c2.14,0.49,4.54-0.59,5.59-2.52C202.1,218.33,199.19,213.88,194.63,214.39z"/>
		<path class="st10" d="M263.51,176.14c-0.74,0.08-1.49,0.3-2.03,0.81c-0.39,0.37-0.63,0.86-0.83,1.35
			c-0.3,0.76-0.51,1.57-0.48,2.38c0.08,1.72,1.41,3.31,3.09,3.7c1.68,0.39,3.57-0.47,4.4-1.98
			C269.39,179.24,267.1,175.74,263.51,176.14z"/>
		<path class="st11" d="M200.56,220.55c-0.48-2.55-2.82-4.5-5.93-4.16c-0.94,0.11-1.9,0.39-2.58,1.04c-0.49,0.46-0.8,1.08-1.05,1.71
			c-0.22,0.55-0.41,1.13-0.52,1.71c-0.05-0.22-0.08-0.45-0.09-0.68c-0.05-1.04,0.22-2.07,0.61-3.03c0.25-0.63,0.56-1.25,1.05-1.71
			c0.68-0.65,1.64-0.93,2.58-1.04C198.51,213.96,201.2,217.12,200.56,220.55z"/>
		<path class="st10" d="M267.65,269.86c-0.63,0.07-1.28,0.26-1.74,0.7c-0.33,0.31-0.54,0.73-0.71,1.16
			c-0.26,0.65-0.44,1.34-0.41,2.04c0.07,1.48,1.21,2.84,2.65,3.17c1.44,0.33,3.06-0.4,3.76-1.7
			C272.68,272.51,270.72,269.52,267.65,269.86z"/>
		<path class="st11" d="M271.65,274.01c-0.32-1.72-1.9-3.03-4-2.8c-0.63,0.07-1.28,0.26-1.74,0.7c-0.33,0.31-0.54,0.73-0.71,1.15
			c-0.15,0.37-0.28,0.76-0.35,1.15c-0.03-0.15-0.05-0.3-0.06-0.46c-0.03-0.7,0.15-1.39,0.41-2.04c0.17-0.42,0.38-0.84,0.71-1.15
			c0.46-0.44,1.11-0.63,1.74-0.7C270.27,269.57,272.08,271.7,271.65,274.01z"/>
		<path class="st11" d="M268.13,181.21c-0.46-1.9-2.26-3.32-4.62-3.06c-0.74,0.08-1.49,0.3-2.03,0.81
			c-0.39,0.37-0.63,0.86-0.83,1.35c-0.15,0.37-0.27,0.75-0.36,1.14c-0.06-0.25-0.11-0.5-0.12-0.76c-0.03-0.81,0.18-1.62,0.48-2.38
			c0.2-0.49,0.44-0.98,0.83-1.35c0.54-0.51,1.29-0.73,2.03-0.81C266.65,175.8,268.79,178.43,268.13,181.21z"/>
		<path class="st10" d="M294.4,184.16c-0.94,0.1-1.9,0.38-2.58,1.03c-0.49,0.47-0.8,1.09-1.05,1.72c-0.38,0.96-0.65,1.99-0.6,3.02
			c0.1,2.19,1.79,4.21,3.93,4.7s4.54-0.59,5.59-2.52C301.87,188.1,298.96,183.65,294.4,184.16z"/>
		<path class="st11" d="M300.32,190.34c-0.5-2.53-2.83-4.46-5.92-4.11c-0.94,0.1-1.89,0.38-2.58,1.03c-0.49,0.47-0.8,1.09-1.05,1.72
			c-0.21,0.54-0.4,1.11-0.5,1.68c-0.06-0.24-0.09-0.48-0.1-0.73c-0.05-1.04,0.22-2.06,0.6-3.03c0.25-0.62,0.56-1.25,1.05-1.71
			c0.69-0.65,1.64-0.93,2.58-1.04C298.3,183.72,300.99,186.9,300.32,190.34z"/>
		<path class="st10" d="M210.21,179.67c-1.5,1.64-2.82,3.53-3.23,5.47c-0.29,1.39-0.08,2.69,0.24,3.91
			c0.49,1.86,1.25,3.63,2.58,4.89c2.81,2.67,8.15,2.59,12.44-0.2s7.14-8.03,6.65-12.2C227.86,172.83,217.5,171.71,210.21,179.67z"/>
		<path class="st11" d="M228.71,180.47c-3.51-4.23-11.13-3.58-16.86,2.67c-1.5,1.63-2.83,3.53-3.23,5.47
			c-0.28,1.39-0.08,2.7,0.24,3.91c0.04,0.16,0.09,0.32,0.14,0.48c-0.85-1.13-1.39-2.51-1.77-3.94c-0.32-1.22-0.53-2.53-0.24-3.91
			c0.4-1.94,1.73-3.83,3.23-5.47C217.19,172.04,226.99,172.75,228.71,180.47z"/>
		<g>
			<g>
				<g>
					<g>
						<path class="st12" d="M273.92,205.28c2.89,2.69,5.94,5.18,9.12,7.51c2.6,1.9,5.1-2.44,2.52-4.32
							c-2.84-2.08-5.54-4.33-8.11-6.73C275.11,199.55,271.56,203.08,273.92,205.28L273.92,205.28z"/>
					</g>
				</g>
				<g>
					<g>
						<path class="st12" d="M281.79,201c-2.69,2.89-5.18,5.94-7.51,9.12c-1.9,2.6,2.44,5.1,4.32,2.52c2.08-2.84,4.33-5.54,6.73-8.11
							C287.52,202.18,283.99,198.64,281.79,201L281.79,201z"/>
					</g>
				</g>
			</g>
			<g>
				<g>
					<g>
						<path class="st12" d="M213.92,208.3c2.89,2.69,5.94,5.18,9.12,7.51c2.6,1.9,5.1-2.44,2.52-4.32
							c-2.84-2.08-5.54-4.33-8.11-6.73C215.11,202.58,211.56,206.11,213.92,208.3L213.92,208.3z"/>
					</g>
				</g>
				<g>
					<g>
						<path class="st12" d="M221.79,204.02c-2.69,2.89-5.18,5.94-7.51,9.12c-1.9,2.6,2.44,5.1,4.32,2.52
							c2.08-2.84,4.33-5.54,6.73-8.11C227.52,205.2,223.99,201.66,221.79,204.02L221.79,204.02z"/>
					</g>
				</g>
			</g>
		</g>
		<path class="st13" d="M239.06,217.85c0.68-1.01,3.62-4.99,4.97-3.75l2.53,2.31c0.36,0.33,0.92,0.27,1.2-0.12
			c0.85-1.2,1.87-2.28,3.02-3.2c0.14-0.11,0.3-0.22,0.47-0.19c0.14,0.03,0.24,0.15,0.33,0.27l2.12,2.74
			c0.34,0.43,0.99,0.41,1.31-0.04c0.72-1.02,1.49-2.01,2.32-2.95c0.34-0.38,0.93-0.35,1.25,0.05c0.94,1.18,1.73,2.47,2.36,3.84"/>
	</g>
	<g class="st14">
		<linearGradient id="SVGID_5_" gradientUnits="userSpaceOnUse" x1="185.0449" y1="142.7174" x2="306.0448" y2="294.7174">
			<stop  offset="4.048630e-03" style="stop-color:#F9ED32"/>
			<stop  offset="0.5887" style="stop-color:#F9ED32;stop-opacity:0"/>
			<stop  offset="1" style="stop-color:#F9ED32"/>
		</linearGradient>
		<path class="st15" d="M250,322.37c-54.07,0-98.06-43.99-98.06-98.05c0-54.07,43.99-98.06,98.06-98.06
			c54.07,0,98.05,43.99,98.05,98.06C348.05,278.38,304.07,322.37,250,322.37z M250,127.26c-53.52,0-97.06,43.54-97.06,97.06
			s43.54,97.05,97.06,97.05s97.05-43.54,97.05-97.05S303.52,127.26,250,127.26z"/>
	</g>
	<g class="st16">
		<g>
			<linearGradient id="SVGID_6_" gradientUnits="userSpaceOnUse" x1="139.8335" y1="224.3138" x2="360.167" y2="224.3138">
				<stop  offset="4.048630e-03" style="stop-color:#F9ED32"/>
				<stop  offset="0.5887" style="stop-color:#F9ED32;stop-opacity:0"/>
				<stop  offset="1" style="stop-color:#F9ED32"/>
			</linearGradient>
			<path class="st17" d="M250,334.48c-60.75,0-110.17-49.42-110.17-110.17S189.25,114.15,250,114.15s110.17,49.42,110.17,110.17
				S310.75,334.48,250,334.48z M250,115.15c-60.19,0-109.17,48.97-109.17,109.17c0,60.2,48.97,109.17,109.17,109.17
				c60.2,0,109.17-48.97,109.17-109.17C359.17,164.12,310.2,115.15,250,115.15z"/>
		</g>
	</g>
</g>
<g>
	<g>
		<path class="st18" d="M91.1,103.79c3.97-2.78,9.36-5.33,15.53-7.16c6.68-1.98,13.07-2.75,18.12-2.41"/>
		
			<ellipse transform="matrix(0.9219 -0.3873 0.3873 0.9219 -33.6025 51.3834)" class="st19" cx="110.69" cy="109.06" rx="19.67" ry="19.67"/>
		<path class="st20" d="M117.78,94.51c0,1.19-1.99,2.16-4.44,2.16s-4.44-0.97-4.44-2.16c0-1.19,1.99-2.16,4.44-2.16
			S117.78,93.32,117.78,94.51z"/>
		<path class="st20" d="M116.05,121.67c0,1.86-2.4,3.36-5.36,3.36c-2.96,0-5.36-1.5-5.36-3.36c0-1.86,2.4-3.36,5.36-3.36
			C113.65,118.31,116.05,119.82,116.05,121.67z"/>
		<path class="st20" d="M95.21,111.13c-1.13-0.36-1.45-2.55-0.7-4.89c0.75-2.33,2.28-3.93,3.41-3.57c1.13,0.36,1.45,2.55,0.7,4.89
			C97.87,109.9,96.35,111.5,95.21,111.13z"/>
		<path class="st20" d="M119.52,111.95c-2.15-0.69-3.29-3.14-2.54-5.48c0.75-2.33,3.1-3.67,5.25-2.98c2.15,0.69,3.29,3.14,2.54,5.48
			C124.03,111.3,121.68,112.64,119.52,111.95z"/>
		<path class="st20" d="M106.34,108.45c-1.21-0.39-1.85-1.76-1.43-3.07c0.42-1.31,1.74-2.06,2.95-1.67
			c1.21,0.39,1.85,1.76,1.43,3.07C108.87,108.09,107.55,108.84,106.34,108.45z"/>
		<path class="st18" d="M124.75,94.22c5.59,0.38,9.54,2.14,10.43,5.12c1.69,5.68-8.37,13.67-22.45,17.85
			c-14.08,4.18-26.87,2.96-28.55-2.71c-0.95-3.19,1.82-7.12,6.93-10.69"/>
	</g>
	<g>
		<path class="st21" d="M417.83,170.16c8.62,3.12,14.18,6.93,13.56,9.82c-0.88,4.08-13.7,4.78-28.65,1.57
			c-14.95-3.21-26.36-9.11-25.48-13.19c0.62-2.89,7.26-4.09,16.41-3.39"/>
		<g>
			<path class="st22" d="M431.39,179.98c-0.88,4.08-13.7,4.78-28.65,1.57c-14.95-3.21-26.36-9.11-25.48-13.19s13.7-4.78,28.65-1.57
				C420.86,170,432.26,175.91,431.39,179.98z"/>
			
				<ellipse transform="matrix(0.2115 -0.9774 0.9774 0.2115 148.576 532.5122)" class="st23" cx="404.32" cy="174.17" rx="14.08" ry="14.08"/>
			<path class="st24" d="M406.68,164.91c0,1.13-1.55,2.05-3.47,2.05s-3.47-0.92-3.47-2.05s1.55-2.05,3.47-2.05
				S406.68,163.78,406.68,164.91z"/>
			<path class="st24" d="M413.73,177.15c-1.32,0.14-2.56-1.29-2.76-3.2c-0.2-1.9,0.71-3.56,2.04-3.7c1.32-0.14,2.56,1.29,2.76,3.2
				C415.97,175.35,415.06,177.01,413.73,177.15z"/>
			<path class="st24" d="M402.96,185.65c-1.9,0.2-3.61-1.18-3.81-3.09c-0.2-1.9,1.18-3.61,3.09-3.81c1.9-0.2,3.61,1.18,3.81,3.09
				C406.25,183.74,404.87,185.45,402.96,185.65z"/>
			<path class="st24" d="M394.25,176.57c-1.04,0.11-2.05-1.35-2.25-3.25c-0.2-1.9,0.48-3.54,1.53-3.65
				c1.04-0.11,2.05,1.35,2.25,3.25C395.97,174.83,395.29,176.46,394.25,176.57z"/>
		</g>
	</g>
</g>
<g>
	<g>
		<g>
			<g>
				<path class="st25" d="M111.93,307.35c-3.05-3.84-4.57-10.55-4.57-20.12c-17.03,0-27.47,0-31.3,0c-7.33,0-12.77-1.83-16.33-5.5
					c-3.55-3.66-5.33-8.39-5.33-14.18c0-6.14,1.52-11.7,4.57-16.66c6.2-10.16,15.23-24.34,27.07-42.55
					c5.86-8.98,13.93-13.47,24.19-13.47c2.14,0,4.68,0.03,7.61,0.09c2.93,0.06,5.3,0.09,7.11,0.09c8.23,0,13.82,1.45,16.75,4.34
					c2.93,2.9,4.4,7.95,4.4,15.16v46.8c3.27,0.35,5.84,1.04,7.7,2.04c1.86,1.01,3.16,2.39,3.89,4.17c0.73,1.77,1.1,4.14,1.1,7.09
					c0,4.49-0.96,7.6-2.88,9.31c-1.92,1.71-5.19,2.75-9.81,3.1c0,9.34-1.64,16.02-4.91,20.03c-3.27,4.02-8.18,6.03-14.72,6.03
					C119.83,313.11,114.98,311.19,111.93,307.35z M107.7,224.29l-22.67,37.76h22.16L107.7,224.29z"/>
			</g>
		</g>
		<g>
			<g>
				<path class="st25" d="M404.21,307.35c-3.05-3.84-4.57-10.55-4.57-20.12c-17.03,0-27.47,0-31.3,0c-7.33,0-12.78-1.83-16.33-5.5
					c-3.55-3.66-5.33-8.39-5.33-14.18c0-6.14,1.52-11.7,4.57-16.66c6.2-10.16,15.23-24.34,27.07-42.55
					c5.86-8.98,13.93-13.47,24.19-13.47c2.14,0,4.68,0.03,7.61,0.09c2.93,0.06,5.3,0.09,7.11,0.09c8.23,0,13.82,1.45,16.75,4.34
					c2.93,2.9,4.4,7.95,4.4,15.16v46.8c3.27,0.35,5.84,1.04,7.7,2.04c1.86,1.01,3.16,2.39,3.89,4.17c0.73,1.77,1.1,4.14,1.1,7.09
					c0,4.49-0.96,7.6-2.88,9.31c-1.92,1.71-5.19,2.75-9.81,3.1c0,9.34-1.64,16.02-4.91,20.03c-3.27,4.02-8.18,6.03-14.72,6.03
					C412.1,313.11,407.25,311.19,404.21,307.35z M399.98,224.29l-22.67,37.76h22.16L399.98,224.29z"/>
			</g>
		</g>
	</g>
	<linearGradient id="SVGID_7_" gradientUnits="userSpaceOnUse" x1="126.6556" y1="250.0319" x2="126.6556" y2="262.0365">
		<stop  offset="0" style="stop-color:#BCBEC0;stop-opacity:0"/>
		<stop  offset="0.9789" style="stop-color:#BCBEC0;stop-opacity:0.9789"/>
		<stop  offset="1" style="stop-color:#BCBEC0"/>
	</linearGradient>
	<polygon class="st26" points="146.12,261.34 107.2,262.05 107.35,250.16 146.12,250.16 	"/>
	<linearGradient id="SVGID_8_" gradientUnits="userSpaceOnUse" x1="418.9056" y1="250.0319" x2="418.9056" y2="262.0365">
		<stop  offset="0" style="stop-color:#BCBEC0;stop-opacity:0"/>
		<stop  offset="0.9789" style="stop-color:#BCBEC0;stop-opacity:0.9789"/>
		<stop  offset="1" style="stop-color:#BCBEC0"/>
	</linearGradient>
	<polygon class="st27" points="438.37,261.34 399.45,262.05 399.6,250.16 438.37,250.16 	"/>
</g>
</svg>
